<mxfile host="app.diagrams.net" modified="2022-06-11T12:27:56.031Z" agent="5.0 (Windows NT 10.0; Win64; x64) AppleWebKit/537.36 (KHTML, like Gecko) Chrome/102.0.5005.63 Safari/537.36 Edg/102.0.1245.39" etag="vFrHm2yVo-zKP1IEtTi2" version="19.0.3" type="github">
  <diagram id="C5RBs43oDa-KdzZeNtuy" name="Page-1">
    <mxGraphModel dx="2249" dy="786" grid="1" gridSize="10" guides="1" tooltips="1" connect="1" arrows="1" fold="1" page="1" pageScale="1" pageWidth="827" pageHeight="1169" math="0" shadow="0">
      <root>
        <mxCell id="WIyWlLk6GJQsqaUBKTNV-0" />
        <mxCell id="WIyWlLk6GJQsqaUBKTNV-1" parent="WIyWlLk6GJQsqaUBKTNV-0" />
        <mxCell id="nhAGkf4_ega8vYeWedQZ-113" value="" style="rounded=0;whiteSpace=wrap;html=1;dashed=1;" vertex="1" parent="WIyWlLk6GJQsqaUBKTNV-1">
          <mxGeometry x="-490" y="880" width="170" height="100" as="geometry" />
        </mxCell>
        <mxCell id="nhAGkf4_ega8vYeWedQZ-70" value="" style="rounded=0;whiteSpace=wrap;html=1;dashed=1;" vertex="1" parent="WIyWlLk6GJQsqaUBKTNV-1">
          <mxGeometry x="-220" y="250" width="190" height="80" as="geometry" />
        </mxCell>
        <mxCell id="nhAGkf4_ega8vYeWedQZ-63" value="" style="rounded=0;whiteSpace=wrap;html=1;dashed=1;" vertex="1" parent="WIyWlLk6GJQsqaUBKTNV-1">
          <mxGeometry x="-520" y="260" width="270" height="400" as="geometry" />
        </mxCell>
        <mxCell id="nhAGkf4_ega8vYeWedQZ-58" value="" style="rounded=0;whiteSpace=wrap;html=1;dashed=1;" vertex="1" parent="WIyWlLk6GJQsqaUBKTNV-1">
          <mxGeometry x="-810" y="270" width="270" height="390" as="geometry" />
        </mxCell>
        <mxCell id="WIyWlLk6GJQsqaUBKTNV-2" value="" style="rounded=0;html=1;jettySize=auto;orthogonalLoop=1;fontSize=11;endArrow=classic;endFill=1;endSize=8;strokeWidth=1;shadow=0;labelBackgroundColor=none;edgeStyle=orthogonalEdgeStyle;" parent="WIyWlLk6GJQsqaUBKTNV-1" source="WIyWlLk6GJQsqaUBKTNV-3" target="WIyWlLk6GJQsqaUBKTNV-6" edge="1">
          <mxGeometry relative="1" as="geometry" />
        </mxCell>
        <mxCell id="WIyWlLk6GJQsqaUBKTNV-3" value="Start game" style="rounded=1;whiteSpace=wrap;html=1;fontSize=12;glass=0;strokeWidth=1;shadow=0;" parent="WIyWlLk6GJQsqaUBKTNV-1" vertex="1">
          <mxGeometry x="-660" y="80" width="120" height="40" as="geometry" />
        </mxCell>
        <mxCell id="nhAGkf4_ega8vYeWedQZ-29" style="edgeStyle=orthogonalEdgeStyle;rounded=0;orthogonalLoop=1;jettySize=auto;html=1;entryX=0.5;entryY=0;entryDx=0;entryDy=0;" edge="1" parent="WIyWlLk6GJQsqaUBKTNV-1" source="WIyWlLk6GJQsqaUBKTNV-6" target="WIyWlLk6GJQsqaUBKTNV-7">
          <mxGeometry relative="1" as="geometry">
            <Array as="points">
              <mxPoint x="-423" y="160" />
              <mxPoint x="-680" y="160" />
            </Array>
          </mxGeometry>
        </mxCell>
        <mxCell id="nhAGkf4_ega8vYeWedQZ-30" style="edgeStyle=orthogonalEdgeStyle;rounded=0;orthogonalLoop=1;jettySize=auto;html=1;exitX=0.5;exitY=1;exitDx=0;exitDy=0;" edge="1" parent="WIyWlLk6GJQsqaUBKTNV-1" source="WIyWlLk6GJQsqaUBKTNV-6" target="nhAGkf4_ega8vYeWedQZ-20">
          <mxGeometry relative="1" as="geometry" />
        </mxCell>
        <mxCell id="nhAGkf4_ega8vYeWedQZ-31" style="edgeStyle=orthogonalEdgeStyle;rounded=0;orthogonalLoop=1;jettySize=auto;html=1;" edge="1" parent="WIyWlLk6GJQsqaUBKTNV-1" source="WIyWlLk6GJQsqaUBKTNV-6" target="nhAGkf4_ega8vYeWedQZ-0">
          <mxGeometry relative="1" as="geometry">
            <Array as="points">
              <mxPoint x="-423" y="160" />
              <mxPoint x="-130" y="160" />
            </Array>
          </mxGeometry>
        </mxCell>
        <mxCell id="nhAGkf4_ega8vYeWedQZ-65" style="edgeStyle=orthogonalEdgeStyle;rounded=0;orthogonalLoop=1;jettySize=auto;html=1;exitX=1;exitY=0.5;exitDx=0;exitDy=0;endArrow=none;endFill=0;" edge="1" parent="WIyWlLk6GJQsqaUBKTNV-1" source="WIyWlLk6GJQsqaUBKTNV-6">
          <mxGeometry relative="1" as="geometry">
            <mxPoint x="-320" y="40" as="targetPoint" />
            <Array as="points">
              <mxPoint x="-320" y="100" />
            </Array>
          </mxGeometry>
        </mxCell>
        <mxCell id="nhAGkf4_ega8vYeWedQZ-66" style="edgeStyle=orthogonalEdgeStyle;rounded=0;orthogonalLoop=1;jettySize=auto;html=1;exitX=0.5;exitY=0;exitDx=0;exitDy=0;endArrow=none;endFill=0;startArrow=classic;startFill=1;" edge="1" parent="WIyWlLk6GJQsqaUBKTNV-1" source="WIyWlLk6GJQsqaUBKTNV-6">
          <mxGeometry relative="1" as="geometry">
            <mxPoint x="-320" y="40" as="targetPoint" />
            <Array as="points">
              <mxPoint x="-423" y="40" />
            </Array>
          </mxGeometry>
        </mxCell>
        <mxCell id="WIyWlLk6GJQsqaUBKTNV-6" value="1. Random&lt;br&gt;2. Personalizado&lt;br&gt;3. CSV" style="rhombus;whiteSpace=wrap;html=1;shadow=0;fontFamily=Helvetica;fontSize=12;align=center;strokeWidth=1;spacing=6;spacingTop=-4;fillColor=#d5e8d4;strokeColor=#82b366;" parent="WIyWlLk6GJQsqaUBKTNV-1" vertex="1">
          <mxGeometry x="-493" y="60" width="140" height="80" as="geometry" />
        </mxCell>
        <mxCell id="nhAGkf4_ega8vYeWedQZ-32" style="edgeStyle=orthogonalEdgeStyle;rounded=0;orthogonalLoop=1;jettySize=auto;html=1;exitX=0.5;exitY=1;exitDx=0;exitDy=0;" edge="1" parent="WIyWlLk6GJQsqaUBKTNV-1" source="WIyWlLk6GJQsqaUBKTNV-7" target="nhAGkf4_ega8vYeWedQZ-9">
          <mxGeometry relative="1" as="geometry" />
        </mxCell>
        <mxCell id="WIyWlLk6GJQsqaUBKTNV-7" value="Cuantos miembros tiene cada party" style="rounded=1;whiteSpace=wrap;html=1;fontSize=12;glass=0;strokeWidth=1;shadow=0;fillColor=#d5e8d4;strokeColor=#82b366;" parent="WIyWlLk6GJQsqaUBKTNV-1" vertex="1">
          <mxGeometry x="-740" y="210" width="120" height="40" as="geometry" />
        </mxCell>
        <mxCell id="Xes6MF6YQogt8XBGIQ9O-4" value="Wizards" style="text;html=1;align=center;verticalAlign=middle;resizable=0;points=[];autosize=1;strokeColor=none;fillColor=none;" parent="WIyWlLk6GJQsqaUBKTNV-1" vertex="1">
          <mxGeometry x="-800" y="496" width="60" height="20" as="geometry" />
        </mxCell>
        <mxCell id="nhAGkf4_ega8vYeWedQZ-37" style="edgeStyle=orthogonalEdgeStyle;rounded=0;orthogonalLoop=1;jettySize=auto;html=1;exitX=0.5;exitY=1;exitDx=0;exitDy=0;" edge="1" parent="WIyWlLk6GJQsqaUBKTNV-1" source="Xes6MF6YQogt8XBGIQ9O-5" target="nhAGkf4_ega8vYeWedQZ-24">
          <mxGeometry relative="1" as="geometry">
            <Array as="points">
              <mxPoint x="-610" y="576" />
              <mxPoint x="-670" y="576" />
            </Array>
          </mxGeometry>
        </mxCell>
        <mxCell id="Xes6MF6YQogt8XBGIQ9O-5" value="create random propiedades" style="rounded=1;whiteSpace=wrap;html=1;fontSize=12;glass=0;strokeWidth=1;shadow=0;fillColor=#dae8fc;strokeColor=#6c8ebf;" parent="WIyWlLk6GJQsqaUBKTNV-1" vertex="1">
          <mxGeometry x="-670" y="516" width="120" height="40" as="geometry" />
        </mxCell>
        <mxCell id="nhAGkf4_ega8vYeWedQZ-44" style="edgeStyle=orthogonalEdgeStyle;rounded=0;orthogonalLoop=1;jettySize=auto;html=1;exitX=0.5;exitY=1;exitDx=0;exitDy=0;" edge="1" parent="WIyWlLk6GJQsqaUBKTNV-1" source="Xes6MF6YQogt8XBGIQ9O-7">
          <mxGeometry relative="1" as="geometry">
            <mxPoint x="-670" y="596" as="targetPoint" />
          </mxGeometry>
        </mxCell>
        <mxCell id="Xes6MF6YQogt8XBGIQ9O-7" value="create random propiedades" style="rounded=1;whiteSpace=wrap;html=1;fontSize=12;glass=0;strokeWidth=1;shadow=0;fillColor=#dae8fc;strokeColor=#6c8ebf;" parent="WIyWlLk6GJQsqaUBKTNV-1" vertex="1">
          <mxGeometry x="-800" y="516" width="120" height="40" as="geometry" />
        </mxCell>
        <mxCell id="nhAGkf4_ega8vYeWedQZ-96" style="edgeStyle=orthogonalEdgeStyle;rounded=0;orthogonalLoop=1;jettySize=auto;html=1;exitX=0.5;exitY=1;exitDx=0;exitDy=0;entryX=0.5;entryY=0;entryDx=0;entryDy=0;startArrow=none;startFill=0;endArrow=classic;endFill=1;" edge="1" parent="WIyWlLk6GJQsqaUBKTNV-1" source="Xes6MF6YQogt8XBGIQ9O-19" target="nhAGkf4_ega8vYeWedQZ-95">
          <mxGeometry relative="1" as="geometry" />
        </mxCell>
        <mxCell id="nhAGkf4_ega8vYeWedQZ-109" style="edgeStyle=orthogonalEdgeStyle;rounded=0;orthogonalLoop=1;jettySize=auto;html=1;exitX=0;exitY=0.5;exitDx=0;exitDy=0;entryX=0.5;entryY=0;entryDx=0;entryDy=0;startArrow=none;startFill=0;endArrow=classic;endFill=1;" edge="1" parent="WIyWlLk6GJQsqaUBKTNV-1" source="Xes6MF6YQogt8XBGIQ9O-19" target="nhAGkf4_ega8vYeWedQZ-107">
          <mxGeometry relative="1" as="geometry">
            <Array as="points">
              <mxPoint x="-530" y="820" />
              <mxPoint x="-530" y="1040" />
              <mxPoint x="-413" y="1040" />
            </Array>
          </mxGeometry>
        </mxCell>
        <mxCell id="Xes6MF6YQogt8XBGIQ9O-19" value="while haya un team vivo" style="rhombus;whiteSpace=wrap;html=1;shadow=0;fontFamily=Helvetica;fontSize=12;align=center;strokeWidth=1;spacing=6;spacingTop=-4;" parent="WIyWlLk6GJQsqaUBKTNV-1" vertex="1">
          <mxGeometry x="-460" y="780" width="100" height="80" as="geometry" />
        </mxCell>
        <mxCell id="nhAGkf4_ega8vYeWedQZ-99" style="edgeStyle=orthogonalEdgeStyle;rounded=0;orthogonalLoop=1;jettySize=auto;html=1;exitX=0.5;exitY=0;exitDx=0;exitDy=0;entryX=0.5;entryY=1;entryDx=0;entryDy=0;startArrow=none;startFill=0;endArrow=classic;endFill=1;" edge="1" parent="WIyWlLk6GJQsqaUBKTNV-1" source="Xes6MF6YQogt8XBGIQ9O-33" target="Xes6MF6YQogt8XBGIQ9O-32">
          <mxGeometry relative="1" as="geometry" />
        </mxCell>
        <mxCell id="Xes6MF6YQogt8XBGIQ9O-33" value="eliminar muerto(s)" style="rounded=1;whiteSpace=wrap;html=1;fontSize=12;glass=0;strokeWidth=1;shadow=0;" parent="WIyWlLk6GJQsqaUBKTNV-1" vertex="1">
          <mxGeometry x="-310" y="990" width="120" height="40" as="geometry" />
        </mxCell>
        <mxCell id="Xes6MF6YQogt8XBGIQ9O-36" style="edgeStyle=orthogonalEdgeStyle;rounded=0;orthogonalLoop=1;jettySize=auto;html=1;exitX=0.5;exitY=0;exitDx=0;exitDy=0;entryX=1;entryY=0.5;entryDx=0;entryDy=0;" parent="WIyWlLk6GJQsqaUBKTNV-1" source="Xes6MF6YQogt8XBGIQ9O-32" target="Xes6MF6YQogt8XBGIQ9O-19" edge="1">
          <mxGeometry relative="1" as="geometry">
            <mxPoint x="-10" y="830" as="targetPoint" />
          </mxGeometry>
        </mxCell>
        <mxCell id="Xes6MF6YQogt8XBGIQ9O-32" value="mostrar team ganador y cementerio" style="rounded=1;whiteSpace=wrap;html=1;fontSize=12;glass=0;strokeWidth=1;shadow=0;" parent="WIyWlLk6GJQsqaUBKTNV-1" vertex="1">
          <mxGeometry x="-310" y="900" width="120" height="40" as="geometry" />
        </mxCell>
        <mxCell id="nhAGkf4_ega8vYeWedQZ-74" style="edgeStyle=orthogonalEdgeStyle;rounded=0;orthogonalLoop=1;jettySize=auto;html=1;entryX=0.5;entryY=0;entryDx=0;entryDy=0;startArrow=none;startFill=0;endArrow=classic;endFill=1;" edge="1" parent="WIyWlLk6GJQsqaUBKTNV-1" source="nhAGkf4_ega8vYeWedQZ-0" target="nhAGkf4_ega8vYeWedQZ-69">
          <mxGeometry relative="1" as="geometry" />
        </mxCell>
        <mxCell id="nhAGkf4_ega8vYeWedQZ-0" value="Leer CSV" style="rounded=1;whiteSpace=wrap;html=1;fontSize=12;glass=0;strokeWidth=1;shadow=0;fillColor=#d5e8d4;strokeColor=#82b366;" vertex="1" parent="WIyWlLk6GJQsqaUBKTNV-1">
          <mxGeometry x="-190" y="200" width="120" height="40" as="geometry" />
        </mxCell>
        <mxCell id="nhAGkf4_ega8vYeWedQZ-2" value="3" style="text;html=1;align=center;verticalAlign=middle;resizable=0;points=[];autosize=1;strokeColor=none;fillColor=none;" vertex="1" parent="WIyWlLk6GJQsqaUBKTNV-1">
          <mxGeometry x="-130" y="175" width="20" height="20" as="geometry" />
        </mxCell>
        <mxCell id="nhAGkf4_ega8vYeWedQZ-4" value="Other option" style="text;html=1;align=center;verticalAlign=middle;resizable=0;points=[];autosize=1;strokeColor=none;fillColor=none;" vertex="1" parent="WIyWlLk6GJQsqaUBKTNV-1">
          <mxGeometry x="-390" y="20" width="80" height="20" as="geometry" />
        </mxCell>
        <mxCell id="nhAGkf4_ega8vYeWedQZ-7" value="1" style="text;html=1;align=center;verticalAlign=middle;resizable=0;points=[];autosize=1;strokeColor=none;fillColor=none;" vertex="1" parent="WIyWlLk6GJQsqaUBKTNV-1">
          <mxGeometry x="-670" y="175" width="20" height="20" as="geometry" />
        </mxCell>
        <mxCell id="nhAGkf4_ega8vYeWedQZ-8" value="2" style="text;html=1;align=center;verticalAlign=middle;resizable=0;points=[];autosize=1;strokeColor=none;fillColor=none;" vertex="1" parent="WIyWlLk6GJQsqaUBKTNV-1">
          <mxGeometry x="-420" y="180" width="20" height="20" as="geometry" />
        </mxCell>
        <mxCell id="nhAGkf4_ega8vYeWedQZ-33" style="edgeStyle=orthogonalEdgeStyle;rounded=0;orthogonalLoop=1;jettySize=auto;html=1;entryX=0.5;entryY=0;entryDx=0;entryDy=0;" edge="1" parent="WIyWlLk6GJQsqaUBKTNV-1" source="nhAGkf4_ega8vYeWedQZ-9" target="nhAGkf4_ega8vYeWedQZ-14">
          <mxGeometry relative="1" as="geometry" />
        </mxCell>
        <mxCell id="nhAGkf4_ega8vYeWedQZ-9" value="Nombre del team" style="rounded=1;whiteSpace=wrap;html=1;fontSize=12;glass=0;strokeWidth=1;shadow=0;fillColor=#d5e8d4;strokeColor=#82b366;" vertex="1" parent="WIyWlLk6GJQsqaUBKTNV-1">
          <mxGeometry x="-740" y="290" width="120" height="40" as="geometry" />
        </mxCell>
        <mxCell id="nhAGkf4_ega8vYeWedQZ-39" style="edgeStyle=orthogonalEdgeStyle;rounded=0;orthogonalLoop=1;jettySize=auto;html=1;entryX=0.5;entryY=0;entryDx=0;entryDy=0;exitX=0.5;exitY=1;exitDx=0;exitDy=0;" edge="1" parent="WIyWlLk6GJQsqaUBKTNV-1" source="nhAGkf4_ega8vYeWedQZ-27" target="Xes6MF6YQogt8XBGIQ9O-5">
          <mxGeometry relative="1" as="geometry">
            <Array as="points">
              <mxPoint x="-680" y="486" />
              <mxPoint x="-610" y="486" />
            </Array>
          </mxGeometry>
        </mxCell>
        <mxCell id="nhAGkf4_ega8vYeWedQZ-41" style="edgeStyle=orthogonalEdgeStyle;rounded=0;orthogonalLoop=1;jettySize=auto;html=1;exitX=0.5;exitY=1;exitDx=0;exitDy=0;" edge="1" parent="WIyWlLk6GJQsqaUBKTNV-1" source="nhAGkf4_ega8vYeWedQZ-27" target="Xes6MF6YQogt8XBGIQ9O-7">
          <mxGeometry relative="1" as="geometry">
            <Array as="points">
              <mxPoint x="-680" y="456" />
              <mxPoint x="-680" y="486" />
              <mxPoint x="-760" y="486" />
            </Array>
          </mxGeometry>
        </mxCell>
        <mxCell id="nhAGkf4_ega8vYeWedQZ-43" style="edgeStyle=orthogonalEdgeStyle;rounded=0;orthogonalLoop=1;jettySize=auto;html=1;entryX=0.5;entryY=0;entryDx=0;entryDy=0;" edge="1" parent="WIyWlLk6GJQsqaUBKTNV-1" source="nhAGkf4_ega8vYeWedQZ-14" target="nhAGkf4_ega8vYeWedQZ-27">
          <mxGeometry relative="1" as="geometry" />
        </mxCell>
        <mxCell id="nhAGkf4_ega8vYeWedQZ-14" value="Create random party" style="rounded=1;whiteSpace=wrap;html=1;fontSize=12;glass=0;strokeWidth=1;shadow=0;fillColor=#dae8fc;strokeColor=#6c8ebf;" vertex="1" parent="WIyWlLk6GJQsqaUBKTNV-1">
          <mxGeometry x="-740" y="356" width="120" height="40" as="geometry" />
        </mxCell>
        <mxCell id="nhAGkf4_ega8vYeWedQZ-19" value="Warrior" style="text;html=1;align=center;verticalAlign=middle;resizable=0;points=[];autosize=1;strokeColor=none;fillColor=none;" vertex="1" parent="WIyWlLk6GJQsqaUBKTNV-1">
          <mxGeometry x="-610" y="496" width="50" height="20" as="geometry" />
        </mxCell>
        <mxCell id="nhAGkf4_ega8vYeWedQZ-62" style="edgeStyle=orthogonalEdgeStyle;rounded=0;orthogonalLoop=1;jettySize=auto;html=1;entryX=0.5;entryY=0;entryDx=0;entryDy=0;" edge="1" parent="WIyWlLk6GJQsqaUBKTNV-1" source="nhAGkf4_ega8vYeWedQZ-21" target="nhAGkf4_ega8vYeWedQZ-59">
          <mxGeometry relative="1" as="geometry">
            <Array as="points">
              <mxPoint x="-425" y="330" />
              <mxPoint x="-425" y="330" />
            </Array>
          </mxGeometry>
        </mxCell>
        <mxCell id="nhAGkf4_ega8vYeWedQZ-21" value="Nombre del team" style="rounded=1;whiteSpace=wrap;html=1;fontSize=12;glass=0;strokeWidth=1;shadow=0;fillColor=#d5e8d4;strokeColor=#82b366;" vertex="1" parent="WIyWlLk6GJQsqaUBKTNV-1">
          <mxGeometry x="-479.5" y="280" width="113" height="40" as="geometry" />
        </mxCell>
        <mxCell id="nhAGkf4_ega8vYeWedQZ-90" style="edgeStyle=orthogonalEdgeStyle;rounded=0;orthogonalLoop=1;jettySize=auto;html=1;entryX=0.5;entryY=0;entryDx=0;entryDy=0;startArrow=none;startFill=0;endArrow=classic;endFill=1;" edge="1" parent="WIyWlLk6GJQsqaUBKTNV-1" source="nhAGkf4_ega8vYeWedQZ-24" target="nhAGkf4_ega8vYeWedQZ-89">
          <mxGeometry relative="1" as="geometry">
            <Array as="points">
              <mxPoint x="-670" y="690" />
              <mxPoint x="-410" y="690" />
            </Array>
          </mxGeometry>
        </mxCell>
        <mxCell id="nhAGkf4_ega8vYeWedQZ-24" value="mostrar consola personajes del team" style="rounded=1;whiteSpace=wrap;html=1;fontSize=12;glass=0;strokeWidth=1;shadow=0;" vertex="1" parent="WIyWlLk6GJQsqaUBKTNV-1">
          <mxGeometry x="-730" y="596" width="120" height="40" as="geometry" />
        </mxCell>
        <mxCell id="nhAGkf4_ega8vYeWedQZ-27" value="Random num wizard y warrior" style="rounded=1;whiteSpace=wrap;html=1;fontSize=12;glass=0;strokeWidth=1;shadow=0;" vertex="1" parent="WIyWlLk6GJQsqaUBKTNV-1">
          <mxGeometry x="-740" y="426" width="120" height="40" as="geometry" />
        </mxCell>
        <mxCell id="nhAGkf4_ega8vYeWedQZ-34" style="edgeStyle=orthogonalEdgeStyle;rounded=0;orthogonalLoop=1;jettySize=auto;html=1;entryX=0.5;entryY=0;entryDx=0;entryDy=0;" edge="1" parent="WIyWlLk6GJQsqaUBKTNV-1" source="nhAGkf4_ega8vYeWedQZ-20" target="nhAGkf4_ega8vYeWedQZ-21">
          <mxGeometry relative="1" as="geometry" />
        </mxCell>
        <mxCell id="nhAGkf4_ega8vYeWedQZ-20" value="Cuantos miembros tiene cada party" style="rounded=1;whiteSpace=wrap;html=1;fontSize=12;glass=0;strokeWidth=1;shadow=0;fillColor=#d5e8d4;strokeColor=#82b366;" vertex="1" parent="WIyWlLk6GJQsqaUBKTNV-1">
          <mxGeometry x="-483" y="210" width="120" height="40" as="geometry" />
        </mxCell>
        <mxCell id="nhAGkf4_ega8vYeWedQZ-49" style="edgeStyle=orthogonalEdgeStyle;rounded=0;orthogonalLoop=1;jettySize=auto;html=1;exitX=0.5;exitY=1;exitDx=0;exitDy=0;" edge="1" parent="WIyWlLk6GJQsqaUBKTNV-1" source="nhAGkf4_ega8vYeWedQZ-46" target="nhAGkf4_ega8vYeWedQZ-48">
          <mxGeometry relative="1" as="geometry" />
        </mxCell>
        <mxCell id="nhAGkf4_ega8vYeWedQZ-57" style="edgeStyle=orthogonalEdgeStyle;rounded=0;orthogonalLoop=1;jettySize=auto;html=1;entryX=0;entryY=0.5;entryDx=0;entryDy=0;" edge="1" parent="WIyWlLk6GJQsqaUBKTNV-1" source="nhAGkf4_ega8vYeWedQZ-46" target="nhAGkf4_ega8vYeWedQZ-56">
          <mxGeometry relative="1" as="geometry">
            <Array as="points">
              <mxPoint x="-500" y="450" />
              <mxPoint x="-500" y="630" />
            </Array>
          </mxGeometry>
        </mxCell>
        <mxCell id="nhAGkf4_ega8vYeWedQZ-46" value="for n miembros party" style="rhombus;whiteSpace=wrap;html=1;shadow=0;fontFamily=Helvetica;fontSize=12;align=center;strokeWidth=1;spacing=6;spacingTop=-4;" vertex="1" parent="WIyWlLk6GJQsqaUBKTNV-1">
          <mxGeometry x="-474.5" y="415" width="103" height="70" as="geometry" />
        </mxCell>
        <mxCell id="nhAGkf4_ega8vYeWedQZ-51" style="edgeStyle=orthogonalEdgeStyle;rounded=0;orthogonalLoop=1;jettySize=auto;html=1;entryX=0;entryY=0.5;entryDx=0;entryDy=0;" edge="1" parent="WIyWlLk6GJQsqaUBKTNV-1" source="nhAGkf4_ega8vYeWedQZ-48" target="nhAGkf4_ega8vYeWedQZ-50">
          <mxGeometry relative="1" as="geometry" />
        </mxCell>
        <mxCell id="nhAGkf4_ega8vYeWedQZ-48" value="¿Warrior o wizard?" style="rhombus;whiteSpace=wrap;html=1;shadow=0;fontFamily=Helvetica;fontSize=12;align=center;strokeWidth=1;spacing=6;spacingTop=-4;fillColor=#d5e8d4;strokeColor=#82b366;" vertex="1" parent="WIyWlLk6GJQsqaUBKTNV-1">
          <mxGeometry x="-474.5" y="520" width="103" height="70" as="geometry" />
        </mxCell>
        <mxCell id="nhAGkf4_ega8vYeWedQZ-110" style="edgeStyle=orthogonalEdgeStyle;rounded=0;orthogonalLoop=1;jettySize=auto;html=1;exitX=0.5;exitY=0;exitDx=0;exitDy=0;startArrow=none;startFill=0;endArrow=classic;endFill=1;entryX=0.5;entryY=1;entryDx=0;entryDy=0;" edge="1" parent="WIyWlLk6GJQsqaUBKTNV-1" source="nhAGkf4_ega8vYeWedQZ-50" target="nhAGkf4_ega8vYeWedQZ-53">
          <mxGeometry relative="1" as="geometry" />
        </mxCell>
        <mxCell id="nhAGkf4_ega8vYeWedQZ-50" value="custom propiedades" style="rounded=1;whiteSpace=wrap;html=1;fontSize=12;glass=0;strokeWidth=1;shadow=0;fillColor=#dae8fc;strokeColor=#6c8ebf;" vertex="1" parent="WIyWlLk6GJQsqaUBKTNV-1">
          <mxGeometry x="-355.25" y="535" width="90" height="40" as="geometry" />
        </mxCell>
        <mxCell id="nhAGkf4_ega8vYeWedQZ-55" style="edgeStyle=orthogonalEdgeStyle;rounded=0;orthogonalLoop=1;jettySize=auto;html=1;exitX=0.5;exitY=0;exitDx=0;exitDy=0;entryX=1;entryY=0.5;entryDx=0;entryDy=0;" edge="1" parent="WIyWlLk6GJQsqaUBKTNV-1" source="nhAGkf4_ega8vYeWedQZ-53" target="nhAGkf4_ega8vYeWedQZ-46">
          <mxGeometry relative="1" as="geometry" />
        </mxCell>
        <mxCell id="nhAGkf4_ega8vYeWedQZ-53" value="Ingresar propiedades" style="rounded=1;whiteSpace=wrap;html=1;fontSize=12;glass=0;strokeWidth=1;shadow=0;fillColor=#d5e8d4;strokeColor=#82b366;" vertex="1" parent="WIyWlLk6GJQsqaUBKTNV-1">
          <mxGeometry x="-371.5" y="476" width="115" height="40" as="geometry" />
        </mxCell>
        <mxCell id="nhAGkf4_ega8vYeWedQZ-93" style="edgeStyle=orthogonalEdgeStyle;rounded=0;orthogonalLoop=1;jettySize=auto;html=1;exitX=0.5;exitY=1;exitDx=0;exitDy=0;startArrow=none;startFill=0;endArrow=classic;endFill=1;" edge="1" parent="WIyWlLk6GJQsqaUBKTNV-1" source="nhAGkf4_ega8vYeWedQZ-56" target="nhAGkf4_ega8vYeWedQZ-89">
          <mxGeometry relative="1" as="geometry" />
        </mxCell>
        <mxCell id="nhAGkf4_ega8vYeWedQZ-56" value="mostrar consola personajes del team" style="rounded=1;whiteSpace=wrap;html=1;fontSize=12;glass=0;strokeWidth=1;shadow=0;" vertex="1" parent="WIyWlLk6GJQsqaUBKTNV-1">
          <mxGeometry x="-470" y="610" width="120" height="40" as="geometry" />
        </mxCell>
        <mxCell id="nhAGkf4_ega8vYeWedQZ-61" style="edgeStyle=orthogonalEdgeStyle;rounded=0;orthogonalLoop=1;jettySize=auto;html=1;exitX=0.5;exitY=1;exitDx=0;exitDy=0;entryX=0.5;entryY=0;entryDx=0;entryDy=0;" edge="1" parent="WIyWlLk6GJQsqaUBKTNV-1" source="nhAGkf4_ega8vYeWedQZ-59" target="nhAGkf4_ega8vYeWedQZ-46">
          <mxGeometry relative="1" as="geometry" />
        </mxCell>
        <mxCell id="nhAGkf4_ega8vYeWedQZ-59" value="Create custom party" style="rounded=1;whiteSpace=wrap;html=1;fontSize=12;glass=0;strokeWidth=1;shadow=0;fillColor=#dae8fc;strokeColor=#6c8ebf;" vertex="1" parent="WIyWlLk6GJQsqaUBKTNV-1">
          <mxGeometry x="-479.5" y="350" width="109.5" height="40" as="geometry" />
        </mxCell>
        <mxCell id="nhAGkf4_ega8vYeWedQZ-67" value="X2 por cada team" style="text;html=1;align=center;verticalAlign=middle;resizable=0;points=[];autosize=1;strokeColor=none;fillColor=none;" vertex="1" parent="WIyWlLk6GJQsqaUBKTNV-1">
          <mxGeometry x="-363" y="260" width="110" height="20" as="geometry" />
        </mxCell>
        <mxCell id="nhAGkf4_ega8vYeWedQZ-68" value="X2 por cada team" style="text;html=1;align=center;verticalAlign=middle;resizable=0;points=[];autosize=1;strokeColor=none;fillColor=none;" vertex="1" parent="WIyWlLk6GJQsqaUBKTNV-1">
          <mxGeometry x="-648" y="270" width="110" height="20" as="geometry" />
        </mxCell>
        <mxCell id="nhAGkf4_ega8vYeWedQZ-76" style="edgeStyle=orthogonalEdgeStyle;rounded=0;orthogonalLoop=1;jettySize=auto;html=1;entryX=0.5;entryY=0;entryDx=0;entryDy=0;startArrow=none;startFill=0;endArrow=classic;endFill=1;" edge="1" parent="WIyWlLk6GJQsqaUBKTNV-1" source="nhAGkf4_ega8vYeWedQZ-69" target="nhAGkf4_ega8vYeWedQZ-75">
          <mxGeometry relative="1" as="geometry" />
        </mxCell>
        <mxCell id="nhAGkf4_ega8vYeWedQZ-69" value="Nombre del team" style="rounded=1;whiteSpace=wrap;html=1;fontSize=12;glass=0;strokeWidth=1;shadow=0;fillColor=#d5e8d4;strokeColor=#82b366;" vertex="1" parent="WIyWlLk6GJQsqaUBKTNV-1">
          <mxGeometry x="-186.5" y="270" width="113" height="40" as="geometry" />
        </mxCell>
        <mxCell id="nhAGkf4_ega8vYeWedQZ-71" value="X2 por cada team" style="text;html=1;align=center;verticalAlign=middle;resizable=0;points=[];autosize=1;strokeColor=none;fillColor=none;" vertex="1" parent="WIyWlLk6GJQsqaUBKTNV-1">
          <mxGeometry x="-130" y="250" width="110" height="20" as="geometry" />
        </mxCell>
        <mxCell id="nhAGkf4_ega8vYeWedQZ-87" style="edgeStyle=orthogonalEdgeStyle;rounded=0;orthogonalLoop=1;jettySize=auto;html=1;exitX=0.5;exitY=1;exitDx=0;exitDy=0;entryX=0.5;entryY=0;entryDx=0;entryDy=0;startArrow=none;startFill=0;endArrow=classic;endFill=1;" edge="1" parent="WIyWlLk6GJQsqaUBKTNV-1" source="nhAGkf4_ega8vYeWedQZ-72" target="nhAGkf4_ega8vYeWedQZ-79">
          <mxGeometry relative="1" as="geometry" />
        </mxCell>
        <mxCell id="nhAGkf4_ega8vYeWedQZ-72" value="Create parties CSV" style="rounded=1;whiteSpace=wrap;html=1;fontSize=12;glass=0;strokeWidth=1;shadow=0;fillColor=#dae8fc;strokeColor=#6c8ebf;" vertex="1" parent="WIyWlLk6GJQsqaUBKTNV-1">
          <mxGeometry x="-183" y="415" width="109.5" height="40" as="geometry" />
        </mxCell>
        <mxCell id="nhAGkf4_ega8vYeWedQZ-88" style="edgeStyle=orthogonalEdgeStyle;rounded=0;orthogonalLoop=1;jettySize=auto;html=1;exitX=0.5;exitY=1;exitDx=0;exitDy=0;entryX=0.5;entryY=0;entryDx=0;entryDy=0;startArrow=none;startFill=0;endArrow=classic;endFill=1;" edge="1" parent="WIyWlLk6GJQsqaUBKTNV-1" source="nhAGkf4_ega8vYeWedQZ-75" target="nhAGkf4_ega8vYeWedQZ-72">
          <mxGeometry relative="1" as="geometry" />
        </mxCell>
        <mxCell id="nhAGkf4_ega8vYeWedQZ-75" value="Leer y contar filas del CSV" style="rounded=1;whiteSpace=wrap;html=1;fontSize=12;glass=0;strokeWidth=1;shadow=0;" vertex="1" parent="WIyWlLk6GJQsqaUBKTNV-1">
          <mxGeometry x="-184.75" y="350" width="109.5" height="40" as="geometry" />
        </mxCell>
        <mxCell id="nhAGkf4_ega8vYeWedQZ-82" style="edgeStyle=orthogonalEdgeStyle;rounded=0;orthogonalLoop=1;jettySize=auto;html=1;entryX=1;entryY=0.5;entryDx=0;entryDy=0;startArrow=none;startFill=0;endArrow=classic;endFill=1;exitX=1;exitY=0.5;exitDx=0;exitDy=0;" edge="1" parent="WIyWlLk6GJQsqaUBKTNV-1" source="nhAGkf4_ega8vYeWedQZ-78" target="nhAGkf4_ega8vYeWedQZ-79">
          <mxGeometry relative="1" as="geometry">
            <Array as="points">
              <mxPoint x="-50" y="585" />
              <mxPoint x="-50" y="511" />
            </Array>
          </mxGeometry>
        </mxCell>
        <mxCell id="nhAGkf4_ega8vYeWedQZ-78" value="Create personaje segun CSV" style="rounded=1;whiteSpace=wrap;html=1;fontSize=12;glass=0;strokeWidth=1;shadow=0;fillColor=#dae8fc;strokeColor=#6c8ebf;" vertex="1" parent="WIyWlLk6GJQsqaUBKTNV-1">
          <mxGeometry x="-186.5" y="564.5" width="109.5" height="40" as="geometry" />
        </mxCell>
        <mxCell id="nhAGkf4_ega8vYeWedQZ-86" style="edgeStyle=orthogonalEdgeStyle;rounded=0;orthogonalLoop=1;jettySize=auto;html=1;exitX=0;exitY=0.5;exitDx=0;exitDy=0;entryX=0;entryY=0.5;entryDx=0;entryDy=0;startArrow=none;startFill=0;endArrow=classic;endFill=1;" edge="1" parent="WIyWlLk6GJQsqaUBKTNV-1" source="nhAGkf4_ega8vYeWedQZ-79" target="nhAGkf4_ega8vYeWedQZ-85">
          <mxGeometry relative="1" as="geometry" />
        </mxCell>
        <mxCell id="nhAGkf4_ega8vYeWedQZ-111" style="edgeStyle=orthogonalEdgeStyle;rounded=0;orthogonalLoop=1;jettySize=auto;html=1;exitX=0.5;exitY=1;exitDx=0;exitDy=0;entryX=0.5;entryY=0;entryDx=0;entryDy=0;startArrow=none;startFill=0;endArrow=classic;endFill=1;" edge="1" parent="WIyWlLk6GJQsqaUBKTNV-1" source="nhAGkf4_ega8vYeWedQZ-79" target="nhAGkf4_ega8vYeWedQZ-78">
          <mxGeometry relative="1" as="geometry" />
        </mxCell>
        <mxCell id="nhAGkf4_ega8vYeWedQZ-79" value="for n lineas CSV" style="rhombus;whiteSpace=wrap;html=1;shadow=0;fontFamily=Helvetica;fontSize=12;align=center;strokeWidth=1;spacing=6;spacingTop=-4;" vertex="1" parent="WIyWlLk6GJQsqaUBKTNV-1">
          <mxGeometry x="-181.5" y="476" width="103" height="70" as="geometry" />
        </mxCell>
        <mxCell id="nhAGkf4_ega8vYeWedQZ-84" value="Split CSV" style="text;html=1;align=center;verticalAlign=middle;resizable=0;points=[];autosize=1;strokeColor=none;fillColor=none;" vertex="1" parent="WIyWlLk6GJQsqaUBKTNV-1">
          <mxGeometry x="-120" y="545" width="70" height="20" as="geometry" />
        </mxCell>
        <mxCell id="nhAGkf4_ega8vYeWedQZ-91" style="edgeStyle=orthogonalEdgeStyle;rounded=0;orthogonalLoop=1;jettySize=auto;html=1;exitX=0.5;exitY=1;exitDx=0;exitDy=0;startArrow=none;startFill=0;endArrow=classic;endFill=1;" edge="1" parent="WIyWlLk6GJQsqaUBKTNV-1" source="nhAGkf4_ega8vYeWedQZ-85">
          <mxGeometry relative="1" as="geometry">
            <mxPoint x="-410" y="750" as="targetPoint" />
            <Array as="points">
              <mxPoint x="-120" y="660" />
              <mxPoint x="-120" y="690" />
              <mxPoint x="-410" y="690" />
            </Array>
          </mxGeometry>
        </mxCell>
        <mxCell id="nhAGkf4_ega8vYeWedQZ-85" value="mostrar consola personajes del team" style="rounded=1;whiteSpace=wrap;html=1;fontSize=12;glass=0;strokeWidth=1;shadow=0;" vertex="1" parent="WIyWlLk6GJQsqaUBKTNV-1">
          <mxGeometry x="-160" y="620" width="120" height="40" as="geometry" />
        </mxCell>
        <mxCell id="nhAGkf4_ega8vYeWedQZ-94" style="edgeStyle=orthogonalEdgeStyle;rounded=0;orthogonalLoop=1;jettySize=auto;html=1;exitX=0.5;exitY=1;exitDx=0;exitDy=0;startArrow=none;startFill=0;endArrow=classic;endFill=1;" edge="1" parent="WIyWlLk6GJQsqaUBKTNV-1" source="nhAGkf4_ega8vYeWedQZ-89" target="Xes6MF6YQogt8XBGIQ9O-19">
          <mxGeometry relative="1" as="geometry" />
        </mxCell>
        <mxCell id="nhAGkf4_ega8vYeWedQZ-89" value="Start battle" style="rounded=1;whiteSpace=wrap;html=1;fontSize=12;glass=0;strokeWidth=1;shadow=0;fillColor=#dae8fc;strokeColor=#6c8ebf;" vertex="1" parent="WIyWlLk6GJQsqaUBKTNV-1">
          <mxGeometry x="-464.75" y="720" width="109.5" height="40" as="geometry" />
        </mxCell>
        <mxCell id="nhAGkf4_ega8vYeWedQZ-100" style="edgeStyle=orthogonalEdgeStyle;rounded=0;orthogonalLoop=1;jettySize=auto;html=1;exitX=0.5;exitY=1;exitDx=0;exitDy=0;entryX=0.5;entryY=0;entryDx=0;entryDy=0;startArrow=none;startFill=0;endArrow=classic;endFill=1;" edge="1" parent="WIyWlLk6GJQsqaUBKTNV-1" source="nhAGkf4_ega8vYeWedQZ-95" target="nhAGkf4_ega8vYeWedQZ-97">
          <mxGeometry relative="1" as="geometry" />
        </mxCell>
        <mxCell id="nhAGkf4_ega8vYeWedQZ-95" value="elegir un personaje by ID" style="rhombus;whiteSpace=wrap;html=1;shadow=0;fontFamily=Helvetica;fontSize=12;align=center;strokeWidth=1;spacing=6;spacingTop=-4;fillColor=#d5e8d4;strokeColor=#82b366;" vertex="1" parent="WIyWlLk6GJQsqaUBKTNV-1">
          <mxGeometry x="-460" y="890" width="100" height="80" as="geometry" />
        </mxCell>
        <mxCell id="nhAGkf4_ega8vYeWedQZ-98" style="edgeStyle=orthogonalEdgeStyle;rounded=0;orthogonalLoop=1;jettySize=auto;html=1;startArrow=none;startFill=0;endArrow=classic;endFill=1;" edge="1" parent="WIyWlLk6GJQsqaUBKTNV-1" source="nhAGkf4_ega8vYeWedQZ-97" target="Xes6MF6YQogt8XBGIQ9O-33">
          <mxGeometry relative="1" as="geometry" />
        </mxCell>
        <mxCell id="nhAGkf4_ega8vYeWedQZ-97" value="Pelea" style="rounded=1;whiteSpace=wrap;html=1;fontSize=12;glass=0;strokeWidth=1;shadow=0;fillColor=#dae8fc;strokeColor=#6c8ebf;" vertex="1" parent="WIyWlLk6GJQsqaUBKTNV-1">
          <mxGeometry x="-464.75" y="990" width="109.5" height="40" as="geometry" />
        </mxCell>
        <mxCell id="nhAGkf4_ega8vYeWedQZ-101" value="Si" style="text;html=1;strokeColor=none;fillColor=none;align=center;verticalAlign=middle;whiteSpace=wrap;rounded=0;dashed=1;" vertex="1" parent="WIyWlLk6GJQsqaUBKTNV-1">
          <mxGeometry x="-420" y="860" width="60" height="30" as="geometry" />
        </mxCell>
        <mxCell id="nhAGkf4_ega8vYeWedQZ-106" style="edgeStyle=orthogonalEdgeStyle;rounded=0;orthogonalLoop=1;jettySize=auto;html=1;entryX=0.5;entryY=0;entryDx=0;entryDy=0;startArrow=none;startFill=0;endArrow=classic;endFill=1;" edge="1" parent="WIyWlLk6GJQsqaUBKTNV-1" source="nhAGkf4_ega8vYeWedQZ-102" target="nhAGkf4_ega8vYeWedQZ-105">
          <mxGeometry relative="1" as="geometry" />
        </mxCell>
        <mxCell id="nhAGkf4_ega8vYeWedQZ-102" value="Exportar cementario en CSV" style="rounded=1;whiteSpace=wrap;html=1;fontSize=12;glass=0;strokeWidth=1;shadow=0;" vertex="1" parent="WIyWlLk6GJQsqaUBKTNV-1">
          <mxGeometry x="-473" y="1130" width="120" height="40" as="geometry" />
        </mxCell>
        <mxCell id="nhAGkf4_ega8vYeWedQZ-104" value="No" style="text;html=1;strokeColor=none;fillColor=none;align=center;verticalAlign=middle;whiteSpace=wrap;rounded=0;dashed=1;" vertex="1" parent="WIyWlLk6GJQsqaUBKTNV-1">
          <mxGeometry x="-540" y="800" width="60" height="30" as="geometry" />
        </mxCell>
        <mxCell id="nhAGkf4_ega8vYeWedQZ-105" value="END GAME" style="rounded=1;whiteSpace=wrap;html=1;fontSize=12;glass=0;strokeWidth=1;shadow=0;" vertex="1" parent="WIyWlLk6GJQsqaUBKTNV-1">
          <mxGeometry x="-473" y="1190" width="120" height="40" as="geometry" />
        </mxCell>
        <mxCell id="nhAGkf4_ega8vYeWedQZ-108" style="edgeStyle=orthogonalEdgeStyle;rounded=0;orthogonalLoop=1;jettySize=auto;html=1;entryX=0.5;entryY=0;entryDx=0;entryDy=0;startArrow=none;startFill=0;endArrow=classic;endFill=1;" edge="1" parent="WIyWlLk6GJQsqaUBKTNV-1" source="nhAGkf4_ega8vYeWedQZ-107" target="nhAGkf4_ega8vYeWedQZ-102">
          <mxGeometry relative="1" as="geometry" />
        </mxCell>
        <mxCell id="nhAGkf4_ega8vYeWedQZ-107" value="Mostrar ganador del juego" style="rounded=1;whiteSpace=wrap;html=1;fontSize=12;glass=0;strokeWidth=1;shadow=0;" vertex="1" parent="WIyWlLk6GJQsqaUBKTNV-1">
          <mxGeometry x="-473" y="1060" width="120" height="40" as="geometry" />
        </mxCell>
        <mxCell id="nhAGkf4_ega8vYeWedQZ-114" value="X2 por &lt;br&gt;cada team" style="text;html=1;align=center;verticalAlign=middle;resizable=0;points=[];autosize=1;strokeColor=none;fillColor=none;" vertex="1" parent="WIyWlLk6GJQsqaUBKTNV-1">
          <mxGeometry x="-500" y="950" width="70" height="30" as="geometry" />
        </mxCell>
      </root>
    </mxGraphModel>
  </diagram>
</mxfile>
